<?xml version="1.0" encoding="utf-8"?>
<!-- Generator: Adobe Illustrator 27.9.0, SVG Export Plug-In . SVG Version: 6.00 Build 0)  -->
<svg version="1.1" id="Warstwa_1" xmlns="http://www.w3.org/2000/svg" xmlns:xlink="http://www.w3.org/1999/xlink" x="0px" y="0px"
	 viewBox="0 0 465 465" style="enable-background:new 0 0 465 465;" xml:space="preserve">
<style type="text/css">
	.st0{fill:#FFFFFF;}
</style>
<path class="st0" d="M232.7,0.7c128.1,0.2,232,104.2,231.7,232.1c-0.3,128.1-104.4,231.9-232.3,231.5
	C104.1,463.9,0.6,360.2,0.6,232.4C0.7,104.4,104.7,0.5,232.7,0.7z M238.2,103.9c0,2.6,0,4.9,0,7.1c0,55.1,0,110.2,0,165.4
	c0,3.3-0.1,6.5-0.4,9.8c-2.1,21.6-23.7,37.6-45,33.5c-19.7-3.8-33.8-21.6-32-40.6c1.9-20.8,17.8-35.8,38.5-36.2
	c4.2-0.1,8.5,0,12.8,0c0-14.1,0-27.4,0-41.2c-4.4,0-8.5,0-12.6,0c-51.5,0.6-88.5,46.3-78.3,96.7c7.8,38.6,44,65.6,84.3,63
	c38.7-2.5,71.7-34.8,73.3-73.5c1.3-30.9,0.5-61.8,0.6-92.7c0-2,0-3.9,0-6.8c20.4,13.6,41.7,21.1,65.5,21.9c0-14,0-27.4,0-41.1
	c-40.3-3.3-61.6-25.7-65.6-65C265.4,103.9,252.3,103.9,238.2,103.9z"/>
</svg>
